<svg width="49" height="48" viewBox="0 0 49 48" fill="none" xmlns="http://www.w3.org/2000/svg">
<g clip-path="url(#clip0_48_19)">
<path d="M24.4999 38C25.0304 38 25.5391 38.2107 25.9142 38.5858C26.2892 38.9609 26.4999 39.4696 26.4999 40V42C26.4999 42.5304 26.2892 43.0391 25.9142 43.4142C25.5391 43.7893 25.0304 44 24.4999 44C23.9695 44 23.4608 43.7893 23.0857 43.4142C22.7107 43.0391 22.4999 42.5304 22.4999 42V40C22.4999 39.4696 22.7107 38.9609 23.0857 38.5858C23.4608 38.2107 23.9695 38 24.4999 38ZM30.5 34C30.9898 34.0001 31.4626 34.1799 31.8287 34.5054C32.1948 34.8309 32.4286 35.2795 32.486 35.766L32.5 36V38C32.4994 38.5098 32.3042 39.0001 31.9543 39.3707C31.6043 39.7414 31.126 39.9645 30.6172 39.9943C30.1083 40.0242 29.6072 39.8587 29.2163 39.5315C28.8254 39.2043 28.5742 38.7402 28.514 38.234L28.5 38V36C28.5 35.4696 28.7107 34.9609 29.0857 34.5858C29.4608 34.2107 29.9695 34 30.5 34ZM18.4999 34C19.0304 34 19.5391 34.2107 19.9142 34.5858C20.2892 34.9609 20.4999 35.4696 20.4999 36V38C20.4999 38.5304 20.2892 39.0391 19.9142 39.4142C19.5391 39.7893 19.0304 40 18.4999 40C17.9695 40 17.4608 39.7893 17.0857 39.4142C16.7107 39.0391 16.4999 38.5304 16.4999 38V36C16.4999 35.4696 16.7107 34.9609 17.0857 34.5858C17.4608 34.2107 17.9695 34 18.4999 34ZM24.4999 30C25.0304 30 25.5391 30.2107 25.9142 30.5858C26.2892 30.9609 26.4999 31.4696 26.4999 32V34C26.4999 34.5304 26.2892 35.0391 25.9142 35.4142C25.5391 35.7893 25.0304 36 24.4999 36C23.9695 36 23.4608 35.7893 23.0857 35.4142C22.7107 35.0391 22.4999 34.5304 22.4999 34V32C22.4999 31.4696 22.7107 30.9609 23.0857 30.5858C23.4608 30.2107 23.9695 30 24.4999 30ZM23.4999 3.99998C26.1448 3.99973 28.7268 4.80594 30.9015 6.31106C33.0763 7.81618 34.7405 9.94864 35.672 12.424C37.8364 13.0186 39.7908 14.2083 41.3131 15.8578C42.8355 17.5073 43.8649 19.5506 44.2844 21.7558C44.7038 23.9609 44.4966 26.2394 43.6863 28.3327C42.8759 30.426 41.4949 32.2501 39.7 33.598C39.4906 33.7621 39.2506 33.8828 38.9941 33.953C38.7375 34.0233 38.4695 34.0416 38.2058 34.007C37.942 33.9724 37.6878 33.8855 37.4581 33.7514C37.2283 33.6173 37.0276 33.4388 36.8677 33.2262C36.7078 33.0136 36.592 32.7713 36.5269 32.5134C36.4618 32.2555 36.4488 31.9872 36.4887 31.7242C36.5285 31.4612 36.6205 31.2088 36.7591 30.9817C36.8977 30.7547 37.0802 30.5576 37.296 30.402C38.5492 29.4617 39.4988 28.1742 40.027 26.6991C40.5553 25.2241 40.6389 23.6264 40.2674 22.1043C39.896 20.5822 39.0859 19.2026 37.9377 18.1367C36.7894 17.0707 35.3534 16.3653 33.808 16.108C33.4258 16.0447 33.0699 15.8728 32.7826 15.6129C32.4954 15.353 32.289 15.016 32.188 14.642C31.5993 12.4476 30.2026 10.5571 28.278 9.34972C26.3535 8.14237 24.0435 7.70756 21.8116 8.13256C19.5798 8.55757 17.5913 9.81092 16.2452 11.6411C14.899 13.4713 14.2949 15.7429 14.5539 18C14.6071 18.4857 14.4824 18.9743 14.2029 19.3752C13.9234 19.776 13.5081 20.0619 13.0339 20.18C11.8756 20.4724 10.8308 21.1038 10.0332 21.9934C9.23568 22.883 8.72167 23.9902 8.55695 25.1736C8.39223 26.3569 8.58429 27.5624 9.10856 28.636C9.63283 29.7096 10.4655 30.6023 11.4999 31.2C11.7349 31.3275 11.9419 31.5008 12.1088 31.7097C12.2756 31.9185 12.3989 32.1587 12.4713 32.4161C12.5437 32.6734 12.5638 32.9426 12.5304 33.2079C12.497 33.4731 12.4107 33.7289 12.2768 33.9603C12.1428 34.1916 11.9638 34.3937 11.7503 34.5547C11.5369 34.7157 11.2934 34.8322 11.0341 34.8974C10.7749 34.9627 10.5052 34.9753 10.241 34.9345C9.97679 34.8937 9.72345 34.8004 9.49594 34.66C7.89337 33.7345 6.57906 32.3824 5.6993 30.7543C4.81953 29.1261 4.40883 27.2858 4.5129 25.4381C4.61696 23.5904 5.23172 21.8078 6.28874 20.2887C7.34576 18.7697 8.80358 17.5737 10.4999 16.834C10.5436 13.415 11.9325 10.1509 14.3658 7.74872C16.799 5.34654 20.0807 3.99971 23.4999 3.99998ZM18.4999 26C19.0304 26 19.5391 26.2107 19.9142 26.5858C20.2892 26.9609 20.4999 27.4696 20.4999 28V30C20.4999 30.5304 20.2892 31.0391 19.9142 31.4142C19.5391 31.7893 19.0304 32 18.4999 32C17.9695 32 17.4608 31.7893 17.0857 31.4142C16.7107 31.0391 16.4999 30.5304 16.4999 30V28C16.4999 27.4696 16.7107 26.9609 17.0857 26.5858C17.4608 26.2107 17.9695 26 18.4999 26ZM30.5 26C30.9898 26.0001 31.4626 26.1799 31.8287 26.5054C32.1948 26.8309 32.4286 27.2795 32.486 27.766L32.5 28V30C32.4994 30.5098 32.3042 31.0001 31.9543 31.3707C31.6043 31.7414 31.126 31.9645 30.6172 31.9943C30.1083 32.0242 29.6072 31.8586 29.2163 31.5315C28.8254 31.2043 28.5742 30.7402 28.514 30.234L28.5 30V28C28.5 27.4696 28.7107 26.9609 29.0857 26.5858C29.4608 26.2107 29.9695 26 30.5 26Z" fill="#EBEB53"/>
<path d="M25.9142 38.5858C25.5391 38.2107 25.0304 38 24.5 38C23.9696 38 23.4609 38.2107 23.0858 38.5858C22.7107 38.9609 22.5 39.4696 22.5 40V42C22.5 42.5304 22.7107 43.0392 23.0858 43.4142C23.4609 43.7893 23.9696 44 24.5 44C25.0304 44 25.5391 43.7893 25.9142 43.4142C26.2893 43.0392 26.5 42.5304 26.5 42V40C26.5 39.4696 26.2893 38.9609 25.9142 38.5858Z" fill="#5E5EDA"/>
<path d="M31.8288 34.5054C31.4627 34.1799 30.9899 34.0001 30.5 34C29.9696 34 29.4609 34.2107 29.0858 34.5858C28.7107 34.9609 28.5 35.4696 28.5 36V38L28.514 38.234C28.5742 38.7402 28.8254 39.2043 29.2163 39.5315C29.6072 39.8587 30.1083 40.0242 30.6172 39.9943C31.1261 39.9645 31.6044 39.7414 31.9543 39.3707C32.3042 39.0001 32.4994 38.5098 32.5 38V36L32.486 35.766C32.4287 35.2795 32.1948 34.831 31.8288 34.5054Z" fill="#5E5EDA"/>
<path d="M19.9142 34.5858C19.5391 34.2107 19.0304 34 18.5 34C17.9696 34 17.4609 34.2107 17.0858 34.5858C16.7107 34.9609 16.5 35.4696 16.5 36V38C16.5 38.5304 16.7107 39.0391 17.0858 39.4142C17.4609 39.7893 17.9696 40 18.5 40C19.0304 40 19.5391 39.7893 19.9142 39.4142C20.2893 39.0391 20.5 38.5304 20.5 38V36C20.5 35.4696 20.2893 34.9609 19.9142 34.5858Z" fill="#5E5EDA"/>
<path d="M25.9142 30.5858C25.5391 30.2107 25.0304 30 24.5 30C23.9696 30 23.4609 30.2107 23.0858 30.5858C22.7107 30.9609 22.5 31.4696 22.5 32V34C22.5 34.5304 22.7107 35.0391 23.0858 35.4142C23.4609 35.7893 23.9696 36 24.5 36C25.0304 36 25.5391 35.7893 25.9142 35.4142C26.2893 35.0391 26.5 34.5304 26.5 34V32C26.5 31.4696 26.2893 30.9609 25.9142 30.5858Z" fill="#5E5EDA"/>
<path d="M19.9142 26.5858C19.5391 26.2107 19.0304 26 18.5 26C17.9696 26 17.4609 26.2107 17.0858 26.5858C16.7107 26.9609 16.5 27.4696 16.5 28V30C16.5 30.5304 16.7107 31.0391 17.0858 31.4142C17.4609 31.7893 17.9696 32 18.5 32C19.0304 32 19.5391 31.7893 19.9142 31.4142C20.2893 31.0391 20.5 30.5304 20.5 30V28C20.5 27.4696 20.2893 26.9609 19.9142 26.5858Z" fill="#5E5EDA"/>
<path d="M31.8288 26.5054C31.4627 26.1799 30.9899 26.0001 30.5 26C29.9696 26 29.4609 26.2107 29.0858 26.5858C28.7107 26.9609 28.5 27.4696 28.5 28V30L28.514 30.234C28.5742 30.7402 28.8254 31.2043 29.2163 31.5315C29.6072 31.8587 30.1083 32.0242 30.6172 31.9943C31.1261 31.9645 31.6044 31.7414 31.9543 31.3707C32.3042 31.0001 32.4994 30.5098 32.5 30V28L32.486 27.766C32.4287 27.2795 32.1948 26.8309 31.8288 26.5054Z" fill="#5E5EDA"/>
</g>
<defs>
<clipPath id="clip0_48_19">
<rect width="48" height="48" fill="white" transform="translate(0.5 -1.52588e-05)"/>
</clipPath>
</defs>
</svg>
