<svg width="49" height="48" viewBox="0 0 49 48" fill="none" xmlns="http://www.w3.org/2000/svg">
<g clip-path="url(#clip0_48_37)">
<path fill-rule="evenodd" clip-rule="evenodd" d="M32.5 5.99999C34.8282 5.99998 37.1061 6.67726 39.0561 7.94927C41.0062 9.22129 42.544 11.0331 43.4823 13.1639C44.4206 15.2946 44.7188 17.6524 44.3405 19.9496C43.9623 22.2469 42.9239 24.3846 41.352 26.102C42.1696 27.7458 42.5627 29.5681 42.4957 31.4028C42.4286 33.2374 41.9033 35.0261 40.9678 36.6058C40.0324 38.1855 38.7164 39.5059 37.1399 40.4467C35.5633 41.3875 33.7764 41.9187 31.942 41.992L31.5 42H13.5C11.3744 42.0021 9.31663 41.2519 7.69123 39.8822C6.06583 38.5124 4.97768 36.6116 4.61954 34.5164C4.26139 32.4212 4.65637 30.2669 5.73451 28.435C6.81264 26.6032 8.50435 25.212 10.51 24.508C10.4428 22.9243 10.69 21.3431 11.2374 19.8555C11.7847 18.3679 12.6214 17.0035 13.699 15.8411C14.7766 14.6787 16.0738 13.7413 17.5158 13.083C18.9577 12.4248 20.5158 12.0587 22.1 12.006C23.1528 10.1792 24.6684 8.66223 26.4942 7.60782C28.3201 6.55341 30.3915 5.99884 32.5 5.99999ZM22.5 16C21.3571 15.9999 20.2274 16.2446 19.187 16.7178C18.1467 17.191 17.2198 17.8815 16.4688 18.743C15.7178 19.6045 15.16 20.617 14.8332 21.7121C14.5063 22.8073 14.4179 23.9598 14.574 25.092L14.664 25.62C14.7205 25.8946 14.7192 26.1779 14.6602 26.452C14.6013 26.7261 14.4859 26.9849 14.3215 27.2119C14.1571 27.439 13.9472 27.6293 13.7052 27.7709C13.4633 27.9124 13.1945 28.002 12.916 28.034C11.6763 28.1784 10.5354 28.7812 9.71759 29.724C8.89976 30.6668 8.46407 31.8813 8.49615 33.1289C8.52824 34.3766 9.02576 35.5671 9.89097 36.4666C10.7562 37.3661 11.9265 37.9095 13.172 37.99L13.5 38H31.5C33.3036 38.0038 35.039 37.3113 36.3445 36.0668C37.65 34.8224 38.4248 33.122 38.5073 31.3203C38.5899 29.5186 37.9738 27.7546 36.7875 26.396C35.6012 25.0374 33.9364 24.1891 32.14 24.028C31.7067 23.9883 31.2979 23.8097 30.9743 23.5189C30.6507 23.2281 30.4296 22.8406 30.344 22.414C29.9771 20.6041 28.9957 18.9767 27.5661 17.8078C26.1365 16.6388 24.3467 16.0001 22.5 16ZM32.5 9.99999C31.3693 9.9987 30.2514 10.2377 29.2201 10.7011C28.1888 11.1645 27.2677 11.8417 26.518 12.688C28.2454 13.3042 29.8091 14.3071 31.0895 15.6202C32.37 16.9332 33.3333 18.5216 33.906 20.264C35.79 20.684 37.49 21.588 38.872 22.836C39.7723 21.6495 40.3236 20.2352 40.4637 18.7523C40.6037 17.2695 40.3271 15.777 39.6648 14.4428C39.0025 13.1087 37.9809 11.986 36.7151 11.201C35.4493 10.4161 33.9894 10.0001 32.5 9.99999Z" fill="#EBEB53"/>
<path d="M22.4998 14H22.4999C24.6079 14.0001 26.662 14.666 28.369 15.9028C30.076 17.1396 31.3487 18.8841 32.0055 20.8871C32.2247 21.5557 32.7791 22.0599 33.4653 22.2149C35.5945 22.6957 37.4764 23.9337 38.7611 25.6984C40.0457 27.463 40.6456 29.6343 40.4491 31.8082C40.2526 33.9821 39.2731 36.0106 37.6929 37.5163C36.118 39.0169 34.0534 39.8964 31.8808 39.9928L31.4818 40L13.5 40L13.4979 40C11.8447 40.0017 10.2442 39.4182 8.98004 38.3528C7.71583 37.2875 6.8695 35.809 6.59094 34.1794C6.31239 32.5499 6.61959 30.8743 7.45814 29.4495C8.29669 28.0247 9.61246 26.9427 11.1724 26.3951C12.0031 26.1035 12.5454 25.303 12.5082 24.4233C12.4511 23.0756 12.6672 21.7303 13.1436 20.4683C13.62 19.2063 14.3468 18.0538 15.2802 17.08C16.2137 16.1062 17.3345 15.3314 18.5752 14.802C19.8159 14.2727 21.1509 13.9999 22.4998 14Z" stroke="white" stroke-width="4" stroke-linejoin="round"/>
</g>
<defs>
<clipPath id="clip0_48_37">
<rect width="48" height="48" fill="white" transform="translate(0.5 -1.52588e-05)"/>
</clipPath>
</defs>
</svg>
