<svg width="24" height="24" viewBox="0 0 24 24" fill="none" xmlns="http://www.w3.org/2000/svg">
<g opacity="0.5">
<path fill-rule="evenodd" clip-rule="evenodd" d="M13.574 3.13703C13.3932 3.10504 13.207 3.12296 13.0356 3.18887C12.8642 3.25479 12.714 3.3662 12.6011 3.51111C12.4883 3.65603 12.4171 3.82897 12.3953 4.01133C12.3734 4.19368 12.4017 4.37854 12.477 4.54603C12.9753 5.65592 13.1244 6.89106 12.9045 8.08763C12.6846 9.2842 12.1062 10.3857 11.2459 11.2459C10.3857 12.1062 9.28419 12.6846 8.08763 12.9045C6.89106 13.1244 5.65592 12.9753 4.54603 12.477C4.37854 12.4017 4.19368 12.3734 4.01132 12.3953C3.82897 12.4171 3.65603 12.4883 3.51111 12.6011C3.36619 12.714 3.25478 12.8642 3.18887 13.0356C3.12296 13.207 3.10503 13.3932 3.13703 13.574C3.52843 15.7916 4.73694 17.7819 6.524 19.152C8.31107 20.5222 10.5468 21.1726 12.79 20.975C15.0332 20.7773 17.1208 19.7459 18.6407 18.0844C20.1606 16.4228 21.0024 14.2519 21 12C21 7.56603 17.794 3.88203 13.574 3.13703ZM14.881 5.61803C16.3392 6.27744 17.5276 7.41648 18.2481 8.84548C18.9687 10.2745 19.178 11.9072 18.8411 13.4717C18.5043 15.0363 17.6417 16.4382 16.3969 17.4441C15.1522 18.45 13.6004 18.9991 12 19C10.6526 19.0001 9.33378 18.6115 8.20176 17.8807C7.06974 17.1499 6.17262 16.108 5.61803 14.88C6.88378 15.1023 8.18445 15.0163 9.40995 14.6294C10.6354 14.2426 11.7497 13.5661 12.6584 12.6574C13.5671 11.7487 14.2436 10.6345 14.6304 9.40895C15.0173 8.18345 15.1033 6.88378 14.881 5.61803Z" fill="white"/>
</g>
</svg>
