<svg width="25" height="24" viewBox="0 0 25 24" fill="none" xmlns="http://www.w3.org/2000/svg">
<g opacity="0.5">
<path d="M6.35457 11.677C7.19214 10.2621 8.47147 9.1616 9.99568 8.54493C11.5199 7.92825 13.2045 7.82955 14.7903 8.26402C16.3761 8.69848 17.7752 9.64203 18.7723 10.9495C19.7693 12.2569 20.3091 13.8558 20.3086 15.5C20.3086 15.7652 20.4139 16.0196 20.6015 16.2071C20.789 16.3946 21.0434 16.5 21.3086 16.5C21.5738 16.5 21.8281 16.3946 22.0157 16.2071C22.2032 16.0196 22.3086 15.7652 22.3086 15.5C22.3087 13.4887 21.6705 11.5293 20.4859 9.90394C19.3013 8.27856 17.6313 7.07109 15.7166 6.45542C13.8019 5.83976 11.7412 5.84766 9.83124 6.478C7.9213 7.10834 6.2607 8.32858 5.08857 9.963L4.55157 6.918C4.50556 6.65676 4.35765 6.4245 4.14039 6.27232C3.92313 6.12013 3.65431 6.06049 3.39307 6.1065C3.13184 6.15252 2.89958 6.30042 2.74739 6.51768C2.59521 6.73494 2.53556 7.00376 2.58157 7.265L3.62357 13.174C3.66994 13.4351 3.81814 13.6671 4.03557 13.819C4.17727 13.914 4.33912 13.9748 4.50833 13.9965C4.67755 14.0182 4.84949 14.0002 5.01057 13.944L10.6906 12.943C10.9518 12.897 11.1841 12.7491 11.3363 12.5318C11.4884 12.3146 11.5481 12.0457 11.5021 11.7845C11.4561 11.5233 11.3082 11.291 11.0909 11.1388C10.8736 10.9866 10.6048 10.927 10.3436 10.973L6.35457 11.677Z" fill="white"/>
</g>
</svg>
