<svg width="120" height="120" viewBox="0 0 120 120" fill="none" xmlns="http://www.w3.org/2000/svg">
<g clip-path="url(#clip0_47_171)">
<path fill-rule="evenodd" clip-rule="evenodd" d="M80.0002 15C85.8207 15 91.5156 16.6932 96.3906 19.8732C101.266 23.0533 105.11 27.5828 107.456 32.9097C109.802 38.2366 110.547 44.1309 109.602 49.8741C108.656 55.6173 106.06 60.9614 102.13 65.255C104.174 69.3645 105.157 73.9202 104.989 78.5069C104.822 83.0936 103.509 87.5653 101.17 91.5146C98.8312 95.4638 95.5412 98.7648 91.5999 101.117C87.6586 103.469 83.1913 104.797 78.6052 104.98L77.5002 105H32.5002C27.1862 105.005 22.0419 103.13 17.9784 99.7054C13.9149 96.2811 11.1945 91.5291 10.2991 86.2911C9.40379 81.0531 10.3912 75.6673 13.0866 71.0876C15.7819 66.508 20.0112 63.0301 25.0252 61.27C24.8572 57.3109 25.4753 53.3577 26.8437 49.6388C28.2121 45.9199 30.3037 42.5089 32.9978 39.6028C35.6918 36.6968 38.9349 34.3533 42.5397 32.7076C46.1445 31.062 50.0397 30.1468 54.0002 30.015C56.6322 25.4481 60.4214 21.6556 64.9859 19.0196C69.5505 16.3836 74.7292 14.9971 80.0002 15ZM55.0002 40C52.1429 39.9997 49.3188 40.6116 46.7179 41.7945C44.117 42.9774 41.7998 44.7039 39.9222 46.8576C38.0447 49.0114 36.6504 51.5425 35.8333 54.2804C35.0162 57.0183 34.7952 59.8995 35.1852 62.73L35.4102 64.05C35.5515 64.7365 35.5483 65.4448 35.4009 66.13C35.2535 66.8152 34.9652 67.4622 34.5541 68.0298C34.1431 68.5975 33.6184 69.0733 33.0134 69.4272C32.4084 69.781 31.7364 70.005 31.0402 70.085C27.941 70.4461 25.0889 71.9531 23.0443 74.31C20.9997 76.6669 19.9105 79.7032 19.9907 82.8224C20.0709 85.9415 21.3147 88.9178 23.4777 91.1666C25.6407 93.4153 28.5665 94.7737 31.6802 94.975L32.5002 95H77.5002C82.0092 95.0095 86.3478 93.2782 89.6116 90.1671C92.8753 87.0559 94.8123 82.8051 95.0186 78.3008C95.2249 73.7965 93.6847 69.3864 90.719 65.99C87.7534 62.5935 83.5912 60.4728 79.1002 60.07C78.0171 59.9707 76.9949 59.5243 76.1859 58.7973C75.3769 58.0702 74.8243 57.1014 74.6102 56.035C73.6931 51.5103 71.2396 47.4419 67.6656 44.5194C64.0915 41.597 59.6169 40.0003 55.0002 40ZM80.0002 25C77.1737 24.9968 74.3787 25.5942 71.8005 26.7527C69.2222 27.9112 66.9196 29.6044 65.0452 31.72C69.3637 33.2605 73.273 35.7679 76.4741 39.0505C79.6753 42.3331 82.0837 46.3041 83.5152 50.66C88.2252 51.71 92.4752 53.97 95.9302 57.09C98.1811 54.1237 99.5593 50.588 99.9095 46.8808C100.26 43.1737 99.5679 39.4424 97.9122 36.1071C96.2565 32.7718 93.7026 29.965 90.538 28.0027C87.3734 26.0403 83.7238 25.0004 80.0002 25Z" fill="#EBEB53"/>
<path d="M54.9993 35H54.9994C60.2693 35.0002 65.4046 36.6651 69.6721 39.7571C73.9397 42.8491 77.1215 47.2102 78.7635 52.2178C79.3115 53.8892 80.6973 55.1497 82.413 55.5372C87.7359 56.7394 92.4407 59.8342 95.6524 64.2459C98.864 68.6576 100.364 74.0858 99.8725 79.5205C99.3812 84.9553 96.9325 90.0265 92.9818 93.7908C89.0447 97.5422 83.8832 99.741 78.4517 99.982L77.4542 100L32.4996 100L32.4945 100C28.3615 100.004 24.3603 98.5454 21.1998 95.882C18.0393 93.2186 15.9234 89.5226 15.2271 85.4486C14.5307 81.3746 15.2987 77.1857 17.3951 73.6237C19.4914 70.0617 22.7808 67.3567 26.6806 65.9878C28.7574 65.2588 30.1133 63.2574 30.0201 61.0583C29.8773 57.6891 30.4177 54.3258 31.6087 51.1708C32.7997 48.0158 34.6166 45.1344 36.9503 42.7C39.2839 40.2655 42.0859 38.3284 45.1877 37.0051C48.2895 35.6818 51.627 34.9998 54.9993 35Z" stroke="white" stroke-width="10" stroke-linejoin="round"/>
</g>
<defs>
<clipPath id="clip0_47_171">
<rect width="120" height="120" fill="white"/>
</clipPath>
</defs>
</svg>
