<svg width="49" height="48" viewBox="0 0 49 48" fill="none" xmlns="http://www.w3.org/2000/svg">
<path d="M24.5 38C25.0304 38 25.5391 38.2107 25.9142 38.5858C26.2893 38.9609 26.5 39.4696 26.5 40V42C26.5 42.5304 26.2893 43.0391 25.9142 43.4142C25.5391 43.7893 25.0304 44 24.5 44C23.9696 44 23.4608 43.7893 23.0858 43.4142C22.7107 43.0391 22.5 42.5304 22.5 42V40C22.5 39.4696 22.7107 38.9609 23.0858 38.5858C23.4608 38.2107 23.9696 38 24.5 38ZM37.228 33.9L38.642 35.314C39.0063 35.6912 39.2079 36.1964 39.2033 36.7208C39.1988 37.2452 38.9885 37.7468 38.6176 38.1176C38.2468 38.4885 37.7452 38.6988 37.2208 38.7033C36.6964 38.7079 36.1912 38.5063 35.814 38.142L34.4 36.728C34.0357 36.3508 33.8341 35.8456 33.8386 35.3212C33.8432 34.7968 34.0535 34.2952 34.4244 33.9244C34.7952 33.5535 35.2968 33.3432 35.8212 33.3387C36.3456 33.3341 36.8508 33.5357 37.228 33.9ZM11.772 33.9C12.1319 33.5413 12.6149 33.3331 13.1228 33.3175C13.6307 33.302 14.1254 33.4804 14.5065 33.8165C14.8877 34.1526 15.1266 34.6211 15.1748 35.1269C15.223 35.6328 15.0768 36.138 14.766 36.54L14.6 36.728L13.186 38.142C12.8261 38.5007 12.3431 38.709 11.8352 38.7245C11.3273 38.74 10.8326 38.5616 10.4514 38.2255C10.0703 37.8894 9.83137 37.4209 9.78319 36.9151C9.735 36.4092 9.88116 35.904 10.192 35.502L10.358 35.314L11.772 33.9ZM24.5 12C27.6826 12 30.7348 13.2643 32.9853 15.5147C35.2357 17.7651 36.5 20.8174 36.5 24C36.5 27.1826 35.2357 30.2348 32.9853 32.4853C30.7348 34.7357 27.6826 36 24.5 36C21.3174 36 18.2651 34.7357 16.0147 32.4853C13.7643 30.2348 12.5 27.1826 12.5 24C12.5 20.8174 13.7643 17.7651 16.0147 15.5147C18.2651 13.2643 21.3174 12 24.5 12ZM24.5 16C22.3783 16 20.3434 16.8428 18.8431 18.3431C17.3428 19.8434 16.5 21.8783 16.5 24C16.5 26.1217 17.3428 28.1566 18.8431 29.6569C20.3434 31.1571 22.3783 32 24.5 32C26.6217 32 28.6566 31.1571 30.1568 29.6569C31.6571 28.1566 32.5 26.1217 32.5 24C32.5 21.8783 31.6571 19.8434 30.1568 18.3431C28.6566 16.8428 26.6217 16 24.5 16ZM8.49998 22C9.00974 22.0006 9.50005 22.1958 9.87072 22.5457C10.2414 22.8956 10.4645 23.3739 10.4943 23.8828C10.5242 24.3917 10.3586 24.8928 10.0315 25.2837C9.70427 25.6746 9.24018 25.9258 8.73398 25.986L8.49998 26H6.49998C5.99022 25.9994 5.49992 25.8042 5.12925 25.4543C4.75857 25.1044 4.53551 24.6261 4.50564 24.1172C4.47576 23.6083 4.64133 23.1072 4.96851 22.7163C5.29569 22.3254 5.75979 22.0742 6.26598 22.014L6.49998 22H8.49998ZM42.5 22C43.0304 22 43.5391 22.2107 43.9142 22.5858C44.2893 22.9609 44.5 23.4696 44.5 24C44.5 24.5304 44.2893 25.0391 43.9142 25.4142C43.5391 25.7893 43.0304 26 42.5 26H40.5C39.9696 26 39.4609 25.7893 39.0858 25.4142C38.7107 25.0391 38.5 24.5304 38.5 24C38.5 23.4696 38.7107 22.9609 39.0858 22.5858C39.4609 22.2107 39.9696 22 40.5 22H42.5ZM10.358 9.85799C10.7024 9.51363 11.1606 9.30677 11.6466 9.27621C12.1327 9.24565 12.6132 9.39349 12.998 9.69199L13.186 9.85799L14.6 11.272C14.9587 11.6319 15.1669 12.1149 15.1824 12.6228C15.198 13.1307 15.0196 13.6254 14.6835 14.0065C14.3474 14.3877 13.8789 14.6266 13.373 14.6748C12.8672 14.723 12.362 14.5768 11.96 14.266L11.772 14.1L10.358 12.686C9.98304 12.3109 9.77241 11.8023 9.77241 11.272C9.77241 10.7417 9.98304 10.233 10.358 9.85799ZM38.642 9.85799C39.0169 10.233 39.2276 10.7417 39.2276 11.272C39.2276 11.8023 39.0169 12.3109 38.642 12.686L37.228 14.1C37.0435 14.291 36.8228 14.4434 36.5788 14.5482C36.3348 14.653 36.0724 14.7082 35.8068 14.7105C35.5412 14.7128 35.2779 14.6622 35.0321 14.5616C34.7863 14.4611 34.563 14.3126 34.3752 14.1248C34.1874 13.937 34.0389 13.7137 33.9384 13.4679C33.8378 13.2221 33.7872 12.9587 33.7895 12.6932C33.7918 12.4276 33.847 12.1652 33.9518 11.9212C34.0566 11.6772 34.209 11.4565 34.4 11.272L35.814 9.85799C36.1891 9.48305 36.6977 9.27241 37.228 9.27241C37.7583 9.27241 38.2669 9.48305 38.642 9.85799ZM24.5 3.99998C25.0304 3.99998 25.5391 4.2107 25.9142 4.58577C26.2893 4.96084 26.5 5.46955 26.5 5.99999V7.99999C26.5 8.53042 26.2893 9.03913 25.9142 9.4142C25.5391 9.78927 25.0304 9.99999 24.5 9.99999C23.9696 9.99999 23.4608 9.78927 23.0858 9.4142C22.7107 9.03913 22.5 8.53042 22.5 7.99999V5.99999C22.5 5.46955 22.7107 4.96084 23.0858 4.58577C23.4608 4.2107 23.9696 3.99998 24.5 3.99998Z" fill="#EBEB53"/>
</svg>
