<svg width="49" height="49" viewBox="0 0 49 49" fill="none" xmlns="http://www.w3.org/2000/svg">
<rect x="1.88953" y="1.88965" width="45.1395" height="45.1395" rx="22.5698" stroke="#D26C10" stroke-width="3"/>
<path d="M25.6594 32.1875H23.8234C23.5714 32.1875 23.4634 32.0795 23.4634 31.8275V25.4915H17.2354C16.9834 25.4915 16.8754 25.3835 16.8754 25.1315V23.4755C16.8754 23.2235 16.9834 23.1155 17.2354 23.1155H23.4634V16.8155C23.4634 16.5635 23.5714 16.4555 23.8234 16.4555H25.6594C25.9114 16.4555 26.0194 16.5635 26.0194 16.8155V23.1155H32.2474C32.4994 23.1155 32.6074 23.2235 32.6074 23.4755V25.1315C32.6074 25.3835 32.4994 25.4915 32.2474 25.4915H26.0194V31.8275C26.0194 32.0795 25.9114 32.1875 25.6594 32.1875Z" fill="#D26C10"/>
</svg>
